<svg width="26" height="26" viewBox="0 0 26 26" fill="none" xmlns="http://www.w3.org/2000/svg">
<path d="M13.406 2.03102C10.6056 2.03419 7.92079 3.14813 5.94069 5.12842C3.96059 7.1087 2.84691 9.7936 2.84399 12.594V21.159C2.84479 21.6884 3.05544 22.1959 3.42978 22.5702C3.80412 22.9446 4.3116 23.1552 4.84099 23.156H13.406C14.8017 23.1696 16.1863 22.9064 17.4797 22.3817C18.7731 21.857 19.9497 21.0811 20.9415 20.0989C21.9333 19.1168 22.7206 17.9478 23.2578 16.6595C23.7951 15.3713 24.0718 13.9893 24.0718 12.5935C24.0718 11.1977 23.7951 9.81576 23.2578 8.52751C22.7206 7.23926 21.9333 6.07027 20.9415 5.0881C19.9497 4.10593 18.7731 3.33007 17.4797 2.80534C16.1863 2.28061 14.8017 2.01744 13.406 2.03102ZM13.406 20.719H5.28099V12.594C5.28099 10.987 5.75752 9.41616 6.6503 8.08001C7.54309 6.74386 8.81204 5.70246 10.2967 5.0875C11.7813 4.47253 13.415 4.31163 14.9911 4.62514C16.5672 4.93864 18.0149 5.71247 19.1512 6.84877C20.2875 7.98508 21.0614 9.43281 21.3749 11.0089C21.6884 12.585 21.5275 14.2187 20.9125 15.7033C20.2976 17.188 19.2562 18.4569 17.92 19.3497C16.5839 20.2425 15.013 20.719 13.406 20.719ZM12.594 13C12.594 13.4311 12.4227 13.8446 12.1179 14.1494C11.8131 14.4543 11.3996 14.6255 10.9685 14.6255C10.5374 14.6255 10.1239 14.4543 9.81909 14.1494C9.51425 13.8446 9.34299 13.4311 9.34299 13C9.34299 12.569 9.5142 12.1557 9.81895 11.851C10.1237 11.5462 10.537 11.375 10.968 11.375C11.399 11.375 11.8123 11.5462 12.117 11.851C12.4218 12.1557 12.594 12.569 12.594 13ZM17.469 13C17.469 13.4311 17.2977 13.8446 16.9929 14.1494C16.6881 14.4543 16.2746 14.6255 15.8435 14.6255C15.4124 14.6255 14.9989 14.4543 14.6941 14.1494C14.3893 13.8446 14.218 13.4311 14.218 13C14.218 12.569 14.3892 12.1557 14.6939 11.851C14.9987 11.5462 15.412 11.375 15.843 11.375C16.274 11.375 16.6873 11.5462 16.992 11.851C17.2968 12.1557 17.469 12.569 17.469 13Z" fill="white"/>
</svg>
