<svg width="24" height="24" viewBox="0 0 24 24" fill="none" xmlns="http://www.w3.org/2000/svg">
<path d="M12 20.4161C12.6643 21.0094 13.4524 21.4473 14.307 21.6981C15.1617 21.9489 16.0614 22.0062 16.941 21.866C17.8205 21.7258 18.6578 21.3916 19.3921 20.8875C20.1264 20.3834 20.7393 19.7222 21.1863 18.9518C21.6332 18.1814 21.9031 17.3212 21.9762 16.4335C22.0493 15.5458 21.9239 14.653 21.6091 13.8199C21.2943 12.9867 20.7979 12.2341 20.156 11.6166C19.5141 10.9992 18.7428 10.5324 17.898 10.2501M13.586 13.7501C14.0249 14.8679 14.1183 16.0917 13.854 17.2631C13.5898 18.4345 12.9802 19.4997 12.104 20.3209C11.2278 21.142 10.1253 21.6814 8.93924 21.8692C7.75315 22.0569 6.53802 21.8845 5.45102 21.3741C4.36402 20.8637 3.45517 20.0389 2.84205 19.0064C2.22893 17.9738 1.93975 16.7811 2.01191 15.5824C2.08407 14.3837 2.51426 13.2343 3.24683 12.2827C3.97939 11.3312 4.98062 10.6214 6.121 10.2451" stroke="white" stroke-width="2" stroke-linecap="round" stroke-linejoin="round"/>
<path d="M12 13.9451C13.5913 13.9451 15.1174 13.3129 16.2426 12.1877C17.3679 11.0625 18 9.53637 18 7.94507C18 6.35377 17.3679 4.82765 16.2426 3.70243C15.1174 2.57721 13.5913 1.94507 12 1.94507C10.4087 1.94507 8.88258 2.57721 7.75736 3.70243C6.63214 4.82765 6 6.35377 6 7.94507C6 9.53637 6.63214 11.0625 7.75736 12.1877C8.88258 13.3129 10.4087 13.9451 12 13.9451Z" stroke="white" stroke-width="2" stroke-linecap="round" stroke-linejoin="round"/>
</svg>
