<svg width="26" height="26" viewBox="0 0 26 26" fill="none" xmlns="http://www.w3.org/2000/svg">
<path d="M18.118 16.047C17 17.983 15.133 19.094 13 19.094C10.867 19.094 9.002 17.984 7.882 16.047C7.7322 15.768 7.69688 15.4416 7.78353 15.1369C7.87018 14.8323 8.07199 14.5734 8.34623 14.4149C8.62047 14.2565 8.9456 14.211 9.25279 14.2881C9.55998 14.3652 9.82509 14.5588 9.992 14.828C10.388 15.512 11.304 16.656 13 16.656C14.696 16.656 15.612 15.511 16.007 14.828C16.0823 14.6807 16.1869 14.5502 16.3142 14.4446C16.4416 14.339 16.5891 14.2603 16.7477 14.2135C16.9064 14.1666 17.073 14.1525 17.2373 14.1721C17.4016 14.1916 17.5602 14.2444 17.7035 14.3272C17.8468 14.4099 17.9717 14.521 18.0707 14.6536C18.1697 14.7861 18.2407 14.9374 18.2794 15.0983C18.3181 15.2592 18.3236 15.4263 18.2957 15.5894C18.2678 15.7524 18.208 15.9082 18.118 16.047ZM23.968 13C23.9682 15.1698 23.3249 17.2909 22.1196 19.0951C20.9142 20.8993 19.2009 22.3055 17.1963 23.1359C15.1917 23.9663 12.9858 24.1835 10.8577 23.7602C8.72965 23.3369 6.77489 22.292 5.24069 20.7576C3.70649 19.2233 2.66175 17.2684 2.23862 15.1403C1.81548 13.0122 2.03295 10.8063 2.86352 8.80181C3.6941 6.79729 5.10046 5.08408 6.90475 3.87888C8.70904 2.67368 10.8302 2.03061 13 2.03101C15.9083 2.03392 18.6966 3.19051 20.753 5.24697C22.8095 7.30342 23.9651 10.0917 23.968 13ZM21.531 13C21.5312 11.3125 21.031 9.66274 20.0935 8.2595C19.1561 6.85627 17.8236 5.76255 16.2645 5.11666C14.7055 4.47077 12.9899 4.30172 11.3347 4.6309C9.6796 4.96007 8.15925 5.77269 6.96597 6.96597C5.77269 8.15925 4.96007 9.6796 4.6309 11.3347C4.30172 12.9899 4.47077 14.7055 5.11666 16.2645C5.76255 17.8236 6.85627 19.1561 8.2595 20.0935C9.66274 21.031 11.3124 21.5312 13 21.531C15.2618 21.5286 17.4303 20.6291 19.0297 19.0297C20.6291 17.4303 21.5286 15.2618 21.531 13ZM9.344 12.594C9.77525 12.594 10.1888 12.4227 10.4938 12.1178C10.7987 11.8128 10.97 11.3992 10.97 10.968C10.97 10.5368 10.7987 10.1232 10.4938 9.81825C10.1888 9.51332 9.77525 9.34201 9.344 9.34201C8.91276 9.34201 8.49918 9.51332 8.19425 9.81825C7.88932 10.1232 7.718 10.5368 7.718 10.968C7.718 11.3992 7.88932 11.8128 8.19425 12.1178C8.49918 12.4227 8.91276 12.594 9.344 12.594ZM16.656 9.34401C16.225 9.34401 15.8117 9.51521 15.507 9.81996C15.2022 10.1247 15.031 10.538 15.031 10.969C15.031 11.4 15.2022 11.8133 15.507 12.1181C15.8117 12.4228 16.225 12.594 16.656 12.594C17.087 12.594 17.5003 12.4228 17.8051 12.1181C18.1098 11.8133 18.281 11.4 18.281 10.969C18.281 10.538 18.1098 10.1247 17.8051 9.81996C17.5003 9.51521 17.087 9.34401 16.656 9.34401Z" fill="white"/>
</svg>
