<svg width="24" height="24" viewBox="0 0 24 24" fill="none" xmlns="http://www.w3.org/2000/svg">
<path d="M5 19V9C5 8.08075 5.18106 7.1705 5.53284 6.32122C5.88463 5.47194 6.40024 4.70026 7.05025 4.05025C7.70026 3.40024 8.47194 2.88463 9.32122 2.53284C10.1705 2.18106 11.0807 2 12 2C12.9193 2 13.8295 2.18106 14.6788 2.53284C15.5281 2.88463 16.2997 3.40024 16.9497 4.05025C17.5998 4.70026 18.1154 5.47194 18.4672 6.32122C18.8189 7.1705 19 8.08075 19 9V19M2 19H22M12 22C12.663 22 13.2989 21.7366 13.7678 21.2678C14.2366 20.7989 14.5 20.163 14.5 19.5V19H9.5V19.5C9.5 20.163 9.76339 20.7989 10.2322 21.2678C10.7011 21.7366 11.337 22 12 22Z" stroke="white" stroke-width="2" stroke-linecap="round" stroke-linejoin="round"/>
</svg>
