<svg width="160" height="160" viewBox="0 0 160 160" fill="none" xmlns="http://www.w3.org/2000/svg">
<g clip-path="url(#clip0_1_5235)">
<path d="M80 160C124.183 160 160 124.183 160 80C160 35.8172 124.183 0 80 0C35.8172 0 0 35.8172 0 80C0 124.183 35.8172 160 80 160Z" fill="black"/>
<path d="M59.5408 41.5999H62.7472C70.1696 42.4735 76.936 46.2399 81.5744 52.0911C82.6373 51.5725 83.5593 50.8052 84.2624 49.8543C93.184 40.5759 107.59 39.3087 118.002 46.8783C122.496 50.9252 125.326 56.4984 125.941 62.5151C126.459 67.2351 126.091 72.0095 124.85 76.5951C124.522 78.9944 123.323 81.189 121.48 82.7599C119.243 84.1247 116.952 82.4063 115.573 80.6319C114.386 79.0911 113.39 77.3999 112.176 75.8703C110.715 73.8236 108.597 72.3383 106.175 71.661C103.753 70.9837 101.172 71.1553 98.8608 72.1471C97.3728 72.7199 95.9136 73.3887 94.5216 74.1647C89.2168 77.1389 83.076 78.2715 77.0592 77.3855C72.1597 76.581 67.3259 75.4178 62.5968 73.9055C60.5972 73.1808 58.5187 72.6958 56.4048 72.4607C52.76 72.2831 50.9728 74.4111 51.7776 77.9999C52.4843 80.7637 53.8045 83.3329 55.64 85.5167C59.2346 90.0642 63.8849 93.6655 69.1872 96.0079C75.0284 98.7611 81.4272 100.126 87.8834 99.9954C94.3395 99.8649 100.678 98.2428 106.403 95.2559C108.083 94.4399 109.72 93.5663 111.426 92.8015C112.169 92.3818 113.02 92.1903 113.871 92.2509C114.723 92.3115 115.538 92.6215 116.214 93.1423C117.51 94.3023 118.002 96.1023 117.496 97.7663C117.262 99.1696 116.777 100.519 116.064 101.75C113.139 107.185 109.144 111.972 104.318 115.82C99.4925 119.668 93.937 122.498 87.9872 124.139C73.4704 127.345 59.8144 118.395 50.7696 107.768C45.6132 101.749 41.4745 94.9288 38.5168 87.5759C35.0874 80.0206 33.8856 71.6434 35.0528 63.4287C36.1826 57.6057 39.1957 52.3157 43.628 48.3738C48.0603 44.4319 53.6657 42.0568 59.5808 41.6143M131.29 42.0367C131.822 42.3359 132.232 42.7455 132.531 43.2783C132.832 43.8095 132.968 44.4095 132.968 45.0927C132.968 45.7743 132.818 46.3471 132.531 46.8799C132.238 47.3985 131.809 47.8276 131.291 48.1215C130.744 48.4248 130.128 48.5798 129.502 48.5711C128.848 48.5711 128.235 48.4207 127.717 48.1215C127.195 47.8317 126.765 47.4016 126.475 46.8799C126.168 46.3349 126.013 45.718 126.024 45.0927C126.024 44.4239 126.174 43.8095 126.474 43.2783C126.774 42.7455 127.184 42.3359 127.715 42.0367C128.263 41.7375 128.88 41.5869 129.504 41.5999C130.16 41.5999 130.774 41.7503 131.293 42.0367H131.29ZM131.386 46.9887C131.864 46.4975 132.096 45.8687 132.096 45.0783C132.096 44.2879 131.864 43.6463 131.386 43.1551C130.909 42.6639 130.282 42.4319 129.49 42.4319C128.698 42.4319 128.07 42.6783 127.606 43.1551C127.142 43.6319 126.898 44.2879 126.898 45.0783C126.898 45.8703 127.13 46.5119 127.606 46.9887C128.085 47.4671 128.698 47.7119 129.49 47.7119C130.282 47.7119 130.909 47.4655 131.386 46.9887ZM130.867 45.0527C130.751 45.2291 130.585 45.3668 130.39 45.4479L131.235 46.7839H129.954L129.243 45.5567H129.147V46.7839H128.058V43.2799H129.776C130.158 43.2799 130.458 43.3887 130.69 43.5935C130.803 43.6996 130.892 43.8288 130.951 43.9724C131.009 44.1159 131.037 44.2705 131.03 44.4255C131.039 44.6479 130.977 44.8673 130.854 45.0527H130.867ZM129.134 44.7375H129.653C129.723 44.7385 129.791 44.7147 129.845 44.6703C129.899 44.6287 129.925 44.5599 129.925 44.4783C129.925 44.3151 129.83 44.2335 129.653 44.2335H129.134V44.7375Z" fill="white"/>
</g>
<defs>
<clipPath id="clip0_1_5235">
<rect width="160" height="160" fill="white"/>
</clipPath>
</defs>
</svg>
