<svg width="21" height="20" viewBox="0 0 21 20" fill="none" xmlns="http://www.w3.org/2000/svg">
<path d="M19.318 7.50416C19.2229 7.21293 19.0444 6.95607 18.8046 6.76548C18.5647 6.57489 18.2742 6.45898 17.969 6.43216L13.516 6.04716L11.774 1.89516C11.6544 1.61252 11.4542 1.37137 11.1983 1.20184C10.9425 1.03231 10.6424 0.941895 10.3355 0.941895C10.0286 0.941895 9.72849 1.03231 9.47266 1.20184C9.21683 1.37137 9.01661 1.61252 8.89701 1.89516L7.15301 6.04716L2.70001 6.43216C2.39313 6.45733 2.10055 6.57264 1.85901 6.76359C1.61747 6.95454 1.43775 7.21262 1.34244 7.5054C1.24713 7.79818 1.24047 8.11259 1.3233 8.40914C1.40614 8.7057 1.57477 8.97115 1.80801 9.17216L5.192 12.1252L4.17601 16.5192C4.10646 16.8184 4.12666 17.1316 4.23409 17.4194C4.34152 17.7073 4.53141 17.9571 4.78003 18.1377C5.02865 18.3182 5.32496 18.4215 5.63194 18.4345C5.93892 18.4476 6.24294 18.3699 6.50601 18.2112L10.333 15.8862L14.161 18.2112C14.4241 18.3696 14.728 18.447 15.0347 18.4338C15.3415 18.4206 15.6376 18.3173 15.8861 18.1368C16.1345 17.9563 16.3243 17.7066 16.4317 17.4189C16.5391 17.1312 16.5594 16.8183 16.49 16.5192L15.474 12.1252L18.858 9.17216C19.0904 8.97032 19.258 8.70435 19.3399 8.40762C19.4217 8.11088 19.4141 7.79659 19.318 7.50416ZM14.103 10.8342C13.8889 11.0206 13.7296 11.2617 13.6422 11.5318C13.5549 11.8019 13.5427 12.0907 13.607 12.3672L14.497 16.2202L11.142 14.1832C10.8984 14.0349 10.6187 13.9564 10.3335 13.9564C10.0483 13.9564 9.76862 14.0349 9.525 14.1832L6.17001 16.2202L7.06001 12.3672C7.12444 12.0907 7.11231 11.8019 7.02492 11.5318C6.93753 11.2617 6.77818 11.0205 6.56401 10.8342L3.58801 8.23816L7.50501 7.89816C7.78865 7.87394 8.06022 7.77238 8.29014 7.60452C8.52006 7.43666 8.69953 7.20894 8.80901 6.94616L10.333 3.31416L11.857 6.94616C11.9666 7.20888 12.1461 7.43654 12.376 7.60438C12.6059 7.77223 12.8774 7.87383 13.161 7.89816L17.079 8.23816L14.103 10.8342Z" fill="white"/>
</svg>
