<svg width="24" height="24" viewBox="0 0 24 24" fill="none" xmlns="http://www.w3.org/2000/svg">
<path fill-rule="evenodd" clip-rule="evenodd" d="M22.5337 7.21101C22.4332 9.37399 20.9005 12.3355 17.9358 16.0947C14.8706 20.021 12.2772 21.9844 10.1559 21.9844C8.84206 21.9844 7.7296 20.7891 6.82126 18.3973C6.21486 16.2052 5.60822 14.0132 5.0016 11.8212C4.32709 9.43074 3.60366 8.23406 2.82995 8.23406C2.66125 8.23406 2.07108 8.58402 1.06057 9.28076L0 7.93388C1.11246 6.97051 2.21005 6.00712 3.29005 5.04217C4.77372 3.7786 5.88778 3.11407 6.6304 3.04695C8.38492 2.88076 9.46492 4.0628 9.8704 6.59309C10.3081 9.32288 10.6114 11.0208 10.7815 11.6856C11.2875 13.9504 11.8437 15.0818 12.4519 15.0818C12.9236 15.0818 13.6322 14.3469 14.5776 12.878C15.5214 11.4086 16.0274 10.2908 16.0956 9.52262C16.2301 8.25456 15.7241 7.61906 14.5776 7.61906C14.0377 7.61906 13.4814 7.74157 12.909 7.98343C14.017 4.40667 16.134 2.66953 19.2583 2.7684C21.575 2.8355 22.6669 4.31637 22.5337 7.21101Z" fill="white"/>
</svg>
