<svg width="26" height="26" viewBox="0 0 26 26" fill="none" xmlns="http://www.w3.org/2000/svg">
<g clip-path="url(#clip0_1_189)">
<path d="M16.695 18.393C17.4449 17.6588 17.9592 16.7179 18.1721 15.6903C18.3851 14.6626 18.2871 13.5949 17.8906 12.6232C17.4942 11.6515 16.8172 10.8199 15.9462 10.2345C15.0752 9.64913 14.0495 9.33651 13 9.33651C11.9505 9.33651 10.9249 9.64913 10.0538 10.2345C9.18278 10.8199 8.50585 11.6515 8.1094 12.6232C7.71295 13.5949 7.61495 14.6626 7.82789 15.6903C8.04084 16.7179 8.55508 17.6588 9.30501 18.393C8.03562 19.0677 6.98021 20.084 6.25801 21.327C6.10821 21.606 6.07289 21.9324 6.15954 22.237C6.24619 22.5417 6.448 22.8006 6.72224 22.959C6.99648 23.1175 7.32161 23.163 7.6288 23.0859C7.93598 23.0088 8.2011 22.8151 8.36801 22.546C8.84406 21.741 9.52164 21.074 10.334 20.6107C11.1463 20.1473 12.0653 19.9036 13.0005 19.9036C13.9357 19.9036 14.8547 20.1473 15.6671 20.6107C16.4794 21.074 17.157 21.741 17.633 22.546C17.7947 22.8258 18.0608 23.0299 18.373 23.1134C18.6852 23.197 19.0177 23.1531 19.2975 22.9915C19.5773 22.8298 19.7814 22.5636 19.865 22.2515C19.9485 21.9393 19.9047 21.6068 19.743 21.327C19.0205 20.0838 17.9648 19.0675 16.695 18.393ZM10.156 14.625C10.156 14.2515 10.2296 13.8817 10.3725 13.5366C10.5154 13.1916 10.7249 12.878 10.989 12.6139C11.2531 12.3499 11.5666 12.1404 11.9117 11.9974C12.2567 11.8545 12.6265 11.781 13 11.781C13.3735 11.781 13.7433 11.8545 14.0884 11.9974C14.4334 12.1404 14.7469 12.3499 15.011 12.6139C15.2751 12.878 15.4846 13.1916 15.6275 13.5366C15.7705 13.8817 15.844 14.2515 15.844 14.625C15.844 15.3792 15.5444 16.1026 15.011 16.636C14.4777 17.1693 13.7543 17.469 13 17.469C12.2457 17.469 11.5224 17.1693 10.989 16.636C10.4556 16.1026 10.156 15.3792 10.156 14.625ZM25.107 15.599C24.8484 15.7929 24.5233 15.8762 24.2032 15.8307C23.8832 15.7851 23.5943 15.6144 23.4 15.356C22.554 14.23 21.384 13.366 20.421 13.159C20.165 13.1035 19.9337 12.9671 19.7613 12.7699C19.589 12.5727 19.4847 12.3253 19.4639 12.0642C19.4432 11.8031 19.507 11.5423 19.6461 11.3203C19.7852 11.0984 19.992 10.9272 20.236 10.832C20.5404 10.7137 20.8118 10.5238 21.0273 10.2784C21.2427 10.0329 21.3958 9.7392 21.4736 9.42203C21.5514 9.10487 21.5516 8.77362 21.4742 8.45636C21.3968 8.13909 21.2441 7.84515 21.029 7.59944C20.8139 7.35372 20.5427 7.16347 20.2385 7.04481C19.9343 6.92614 19.6059 6.88254 19.2812 6.91772C18.9566 6.9529 18.6452 7.06581 18.3734 7.24688C18.1016 7.42796 17.8775 7.67188 17.72 7.95796C17.645 8.10245 17.5419 8.23046 17.4166 8.33443C17.2914 8.43841 17.1466 8.51625 16.9908 8.56336C16.835 8.61047 16.6713 8.6259 16.5094 8.60873C16.3476 8.59156 16.1908 8.54214 16.0483 8.4634C15.9058 8.38465 15.7806 8.27817 15.6799 8.15023C15.5793 8.02229 15.5053 7.87549 15.4623 7.71849C15.4193 7.56149 15.4082 7.39747 15.4296 7.23611C15.451 7.07474 15.5045 6.9193 15.587 6.77896C15.8883 6.24502 16.2962 5.77877 16.7853 5.40921C17.2745 5.03965 17.8345 4.77469 18.4304 4.63081C19.0263 4.48693 19.6455 4.4672 20.2494 4.57286C20.8533 4.67851 21.429 4.90729 21.9407 5.24496C22.4524 5.58263 22.8891 6.02197 23.2238 6.53565C23.5584 7.04933 23.7838 7.62637 23.8859 8.23088C23.9879 8.83539 23.9645 9.45444 23.8171 10.0495C23.6697 10.6446 23.4015 11.203 23.029 11.69C23.9234 12.2856 24.7086 13.0308 25.35 13.893C25.4461 14.0209 25.5161 14.1665 25.5559 14.3215C25.5957 14.4766 25.6046 14.6379 25.582 14.7963C25.5595 14.9548 25.5059 15.1072 25.4244 15.2449C25.3429 15.3826 25.235 15.5029 25.107 15.599ZM5.58001 13.162C4.61701 13.37 3.44701 14.233 2.60101 15.36C2.40365 15.6104 2.11606 15.7737 1.79982 15.8148C1.48359 15.8558 1.16384 15.7714 0.909055 15.5796C0.65427 15.3879 0.484701 15.104 0.436659 14.7887C0.388616 14.4735 0.465919 14.1519 0.652014 13.893C1.29348 13.0312 2.07823 12.286 2.97201 11.69C2.59763 11.203 2.32761 10.6442 2.17881 10.0482C2.03002 9.45231 2.00563 8.83212 2.10718 8.22635C2.20873 7.62058 2.43403 7.04224 2.76902 6.52742C3.10402 6.01259 3.54152 5.57233 4.05423 5.23411C4.56694 4.89588 5.14385 4.66695 5.74897 4.5616C6.35409 4.45625 6.97443 4.47674 7.57128 4.62179C8.16812 4.76684 8.72867 5.03334 9.21795 5.40466C9.70722 5.77598 10.1147 6.24415 10.415 6.77996C10.5401 6.99132 10.5983 7.23557 10.5819 7.48061C10.5656 7.72566 10.4755 7.96003 10.3235 8.15292C10.1715 8.34582 9.96471 8.48821 9.73028 8.5614C9.49584 8.63458 9.24476 8.63512 9.01001 8.56296C8.85419 8.51575 8.7094 8.43781 8.58419 8.33373C8.45898 8.22965 8.3559 8.10154 8.28101 7.95696C8.12333 7.67143 7.89919 7.42809 7.62757 7.2475C7.35595 7.06692 7.04483 6.95441 6.72053 6.9195C6.39623 6.88458 6.06829 6.92829 5.76445 7.04692C5.46061 7.16555 5.18982 7.35561 4.97497 7.60103C4.76012 7.84645 4.60754 8.14 4.53014 8.45686C4.45274 8.77372 4.45279 9.10455 4.53028 9.42139C4.60778 9.73822 4.76045 10.0317 4.97537 10.2771C5.19029 10.5224 5.46114 10.7124 5.76501 10.831C6.00901 10.9262 6.21586 11.0974 6.35492 11.3193C6.49399 11.5413 6.55787 11.8021 6.53711 12.0632C6.51636 12.3243 6.41206 12.5717 6.23968 12.7689C6.06729 12.9661 5.83599 13.1025 5.58001 13.158L5.57901 13.161L5.58001 13.162Z" fill="white"/>
</g>
<defs>
<clipPath id="clip0_1_189">
<rect width="26" height="26" fill="white"/>
</clipPath>
</defs>
</svg>
