<svg width="26" height="26" viewBox="0 0 26 26" fill="none" xmlns="http://www.w3.org/2000/svg">
<path d="M17.875 15.844C16.7868 15.8423 15.7358 16.2398 14.921 16.961L10.776 14.3C11.0332 13.4524 11.0332 12.5476 10.776 11.7L14.921 9.03997C15.7276 9.74931 16.7634 10.1431 17.8375 10.1488C18.9116 10.1545 19.9516 9.77165 20.7656 9.07088C21.5796 8.37011 22.1129 7.39866 22.267 6.33565C22.4211 5.27264 22.1857 4.18975 21.6042 3.28666C21.0227 2.38356 20.1343 1.72114 19.1028 1.42155C18.0713 1.12196 16.9663 1.2054 15.9914 1.65647C15.0166 2.10755 14.2378 2.89585 13.7984 3.87602C13.3591 4.8562 13.289 5.96215 13.601 6.98997L9.45298 9.64897C8.80821 9.07927 8.01269 8.7078 7.16196 8.57919C6.31122 8.45057 5.44145 8.57026 4.65708 8.9239C3.87271 9.27754 3.20711 9.85008 2.74019 10.5728C2.27327 11.2955 2.0249 12.1376 2.0249 12.998C2.0249 13.8584 2.27327 14.7005 2.74019 15.4232C3.20711 16.1459 3.87271 16.7184 4.65708 17.072C5.44145 17.4257 6.31122 17.5454 7.16196 17.4168C8.01269 17.2881 8.80821 16.9167 9.45298 16.347L13.598 19.013C13.3243 19.9124 13.3412 20.8752 13.6464 21.7645C13.9515 22.6538 14.5294 23.4241 15.2976 23.966C16.0659 24.5079 16.9855 24.7936 17.9256 24.7827C18.8657 24.7717 19.7784 24.4645 20.5338 23.9048C21.2892 23.3452 21.8489 22.5615 22.1332 21.6654C22.4175 20.7692 22.4119 19.8062 22.1173 18.9135C21.8227 18.0207 21.254 17.2435 20.4921 16.6926C19.7303 16.1417 18.8141 15.8451 17.874 15.845L17.875 15.844ZM17.875 3.65597C18.4138 3.65597 18.9305 3.87 19.3115 4.25098C19.6924 4.63196 19.9065 5.14868 19.9065 5.68747C19.9065 6.22626 19.6924 6.74298 19.3115 7.12396C18.9305 7.50494 18.4138 7.71897 17.875 7.71897C17.3362 7.71897 16.8195 7.50494 16.4385 7.12396C16.0575 6.74298 15.8435 6.22626 15.8435 5.68747C15.8435 5.14868 16.0575 4.63196 16.4385 4.25098C16.8195 3.87 17.3362 3.65597 17.875 3.65597ZM6.49998 15.031C5.96133 15.031 5.44474 14.817 5.06385 14.4361C4.68296 14.0552 4.46898 13.5386 4.46898 13C4.46898 12.4613 4.68296 11.9447 5.06385 11.5638C5.44474 11.183 5.96133 10.969 6.49998 10.969C7.03864 10.969 7.55523 11.183 7.93612 11.5638C8.317 11.9447 8.53098 12.4613 8.53098 13C8.53098 13.5386 8.317 14.0552 7.93612 14.4361C7.55523 14.817 7.03864 15.031 6.49998 15.031ZM17.875 22.344C17.3363 22.344 16.8197 22.13 16.4388 21.7491C16.058 21.3682 15.844 20.8516 15.844 20.313C15.844 19.7743 16.058 19.2577 16.4388 18.8768C16.8197 18.496 17.3363 18.282 17.875 18.282C18.4136 18.282 18.9302 18.496 19.3111 18.8768C19.692 19.2577 19.906 19.7743 19.906 20.313C19.906 20.8516 19.692 21.3682 19.3111 21.7491C18.9302 22.13 18.4136 22.344 17.875 22.344Z" fill="white"/>
</svg>
