<svg width="24" height="24" viewBox="0 0 24 24" fill="none" xmlns="http://www.w3.org/2000/svg">
<path d="M9 11.969V5C9 4.20435 9.31607 3.44129 9.87868 2.87868C10.4413 2.31607 11.2044 2 12 2C12.7956 2 13.5587 2.31607 14.1213 2.87868C14.6839 3.44129 15 4.20435 15 5V6.003M15 12.002V19C15 19.7956 14.6839 20.5587 14.1213 21.1213C13.5587 21.6839 12.7956 22 12 22C11.2044 22 10.4413 21.6839 9.87868 21.1213C9.31607 20.5587 9 19.7956 9 19V17.985" stroke="white" stroke-width="2" stroke-linecap="round"/>
<path d="M12 15H4.992C4.59856 14.9995 4.20908 14.9215 3.84579 14.7704C3.4825 14.6194 3.15251 14.3982 2.87468 14.1197C2.59685 13.8411 2.37661 13.5105 2.22653 13.1468C2.07645 12.7831 1.99948 12.3934 2 12C2 10.343 3.34 9 4.992 9H5.994M12 9H18.994C19.3884 8.99961 19.7789 9.07689 20.1434 9.22744C20.5079 9.37799 20.8392 9.59886 21.1183 9.87744C21.3975 10.156 21.619 10.4868 21.7703 10.851C21.9215 11.2152 21.9996 11.6056 22 12C22 13.657 20.654 15 18.994 15H18.034" stroke="white" stroke-width="2" stroke-linecap="round"/>
</svg>
